<?xml version="1.0" encoding="UTF-8" standalone="no"?>
<!-- Created with Inkscape (http://www.inkscape.org/) -->

<svg
   version="1.1"
   id="svg1"
   width="1024px"
   height="1024px"
   viewBox="0 0 1024 1024"
   sodipodi:docname="sun_mountain1.svg"
   inkscape:version="1.3.2 (091e20e, 2023-11-25, custom)"
   inkscape:export-filename="images\sun_mountain1.png"
   inkscape:export-xdpi="131.25"
   inkscape:export-ydpi="131.25"
   xmlns:inkscape="http://www.inkscape.org/namespaces/inkscape"
   xmlns:sodipodi="http://sodipodi.sourceforge.net/DTD/sodipodi-0.dtd"
   xmlns="http://www.w3.org/2000/svg"
   xmlns:svg="http://www.w3.org/2000/svg">
  <defs
     id="defs1" />
  <sodipodi:namedview
     id="namedview1"
     pagecolor="#505050"
     bordercolor="#eeeeee"
     borderopacity="1"
     inkscape:showpageshadow="0"
     inkscape:pageopacity="0"
     inkscape:pagecheckerboard="0"
     inkscape:deskcolor="#505050"
     inkscape:zoom="0.39001358"
     inkscape:cx="402.55008"
     inkscape:cy="562.80091"
     inkscape:window-width="1920"
     inkscape:window-height="1051"
     inkscape:window-x="-9"
     inkscape:window-y="-9"
     inkscape:window-maximized="1"
     inkscape:current-layer="g2" />
  <g
     id="g2"
     inkscape:label="graphics">
    <rect
       style="fill:#fdf0d3;fill-opacity:1;fill-rule:evenodd;stroke:#ffffff;stroke-width:0;stroke-linejoin:round;paint-order:fill markers stroke"
       id="rect4"
       width="1024"
       height="1024"
       x="0"
       y="0" />
    <circle
       style="fill:#f8c73f;fill-rule:evenodd;stroke:#ffffff;stroke-width:0;stroke-linejoin:round;paint-order:fill markers stroke;fill-opacity:1"
       id="path4"
       cx="512"
       cy="325.62967"
       r="150"
       inkscape:label="sun" />
    <g
       id="g4"
       inkscape:label="mountain">
      <path
         style="display:inline;fill:#172b43"
         d="M 1024,1024 H 640.0042 c 0,-6.2895 -24.41368,-27.33999 -53.6,-43.53602 -8.8,-4.88328 -22.84,-12.6622 -31.2,-17.28649 C 495.66214,930.24458 486.06312,913.44863 513.40244,890.04201 539.2671,867.89793 544,861.56292 544,849.08702 544,836.11002 539.39884,831.1093 507.32449,809.22665 453.25517,772.33797 448.31215,758.82787 474.3859,719.2 c 20.25465,-30.78379 24.61441,-41.24865 27.99615,-67.2 4.82664,-37.03937 0.14739,-43.0529 -9.09273,-11.68551 -10.57677,35.90494 -17.32555,47.51639 -48.06094,82.69014 -28.34584,32.43915 -22.6905,50.26073 26.58137,83.76541 51.11178,34.75581 53.12111,44.15767 15.87101,74.26241 -40.29625,32.56658 -36.13241,45.43515 26.71924,82.57717 44.21186,26.12689 76,52.29938 76,60.39038 H 0 V 958.55373 806.56285 737.6 c 2.4735232,0 38.40968,-25.70404 103.75522,-76.68072 67.98241,-53.03374 60.77582,-48.33394 84.65249,-55.20637 28.64861,-8.24593 31.74529,-10.13934 49.41686,-30.21506 7.25597,-8.24311 9.80508,-9.91065 22.39039,-14.64707 21.47703,-8.08277 31.26338,-12.82807 36.86297,-17.87449 C 336.4199,507.52091 390.64648,422.51312 416,422.4 c 16.09114,-0.0718 29.43195,-19.13714 69.51911,-74.44356 31.43036,-43.36302 50.76956,-41.37729 84.36202,8.66221 14.29321,21.29125 147.26409,169.57689 159.9069,179.74345 7.36572,5.92305 41.5427,20.66617 65.41197,28.21713 50.52339,12.07337 66.33216,77.8794 157.72324,129.56744 28.50121,12.84721 49.34226,35.2558 71.07676,56.80453 z"
         id="path2"
         sodipodi:nodetypes="ccsssssssssssscccccssssssssssscc"
         inkscape:label="darkblue" />
      <path
         style="display:inline;fill:#709eab"
         d="m 590.4,1023.2 c 0,-0.44 0.36,-0.8 0.8,-0.8 0.44,0 0.8,0.36 0.8,0.8 0,0.44 -0.36,0.8 -0.8,0.8 -0.44,0 -0.8,-0.36 -0.8,-0.8 z M 788.8,979.97954 C 673.12502,905.66026 676.95945,909.03554 632.5052,842.4 c -12.32848,-18.48 -30.19921,-43.68 -39.71273,-56 -33.13526,-42.9101 -40.97593,-56.26682 -51.0928,-87.03743 -13.57584,-41.2911 -12.39211,-41.81213 9.45688,-4.16257 20.74273,35.74329 26.2989,42.43956 91.52261,110.30278 32.90181,34.2333 32.96674,33.98916 5.55778,-20.89863 -12.54625,-25.12449 -22.5563,-46.44608 -22.24455,-47.38131 0.31174,-0.93524 27.3297,23.65442 60.03991,54.64369 l 59.4731,56.34411 21.2473,29.73392 c 21.77873,30.4776 53.17231,69.34187 56.98026,70.53976 2.8799,0.90596 0.96627,-2.65759 -21.98264,-40.93588 -31.60072,-52.70932 -32.5484,-55.91542 -11.70784,-39.6088 7.88206,6.16729 14.61083,13.58444 22.8612,25.2 C 868.39355,971.2629 893.47755,997.86392 918.92708,1024 H 856.8 c -26.5561,-17.3478 -35.36975,-23.056 -68,-44.02046 z M 128,998.64721 c 0,-2.4984 73.72973,-88.05587 94.84795,-110.06348 25.12941,-26.18774 40.37317,-39.11422 68.63906,-58.20493 35.96124,-24.28811 41.37164,-28.7741 59.98079,-49.7325 23.68006,-26.66947 25.35159,-24.62965 4.71292,5.7513 C 341.70654,807.70417 332.45794,816.33619 281.6,856.00627 227.72267,898.03152 227.35479,898.37912 190.16586,942.4 165.38712,971.73083 128,1005.5584 128,998.64721 Z M 0,806.56285 5.2,802.70044 c 2.86,-2.12433 24.070535,-16.49332 47.134522,-31.93109 41.617629,-27.85657 45.223107,-29.73975 68.136388,-35.58831 13.53022,-3.45356 113.9311,-62.84018 140.07638,-82.85448 7.99178,-6.11773 54.78776,-57.03305 88.09228,-95.84682 9.99976,-11.65393 18.27312,-19.50219 25.91169,-24.5803 17.39928,-11.56702 17.19027,-10.83563 -7.80206,27.30056 -19.0063,29.00201 -70.52584,101.35432 -96.17411,135.06367 -12.94154,17.00898 16.52656,-9.94903 53.25146,-48.71551 45.48215,-48.01055 56.4863,-63.02085 87.34827,-119.14816 15.08111,-27.42735 14.10334,-26.18988 59.17307,-74.88972 44.22429,-47.78629 44.12245,-47.70544 47.63386,-37.82022 3.49218,9.83103 1.67801,17.28106 -10.49776,43.10994 -22.08221,46.84378 -24.29963,50.24897 -49.98171,76.75491 -24.22753,25.00474 -29.93769,32.78758 -61.18201,83.38993 -22.213,35.9755 -17.37859,33.75562 17.73767,-8.14484 11.06275,-13.2 33.21225,-36.96 49.22109,-52.8 19.18567,-18.98332 31.15683,-32.19719 35.12079,-38.76661 7.14105,-11.8348 6.32574,-12.09503 15.00643,4.78974 8.71113,16.94399 9.62078,14.93037 -21.9232,48.52986 C 478.34342,584.54885 457.85103,607.88 445.9444,622.4 c -15.10686,18.42266 -24.95659,28.86128 -32.5964,34.5453 -71.1445,52.93146 -79.68853,58.01846 -112.55475,67.01356 -87.55302,23.96226 -96.28128,28.95796 -130.06049,74.44114 -39.83904,53.64267 -44.87012,60.0732 -56.16615,71.78935 C 97.172778,888.2301 52.77435,922.7683 7.6,953.40029 L 0,958.55373 Z M 1024,958.24354 C 961.47913,921.74722 907.9751,872.12481 860.76826,817.81028 853.2602,809.08506 838.79327,795.34864 790.8147,751.38899 783.306,744.50927 775.85793,740.77633 728.34479,720.07938 644.10694,683.38497 657.12835,692.3725 587.6,622.93564 554.82,590.19878 528,562.44095 528,561.25158 c 0,-1.18937 1.44,-6.25955 3.2,-11.26706 4.43325,-12.61339 4.23744,-13.87275 -4.8491,-31.18801 -15.93389,-30.36354 7.60098,-18.6784 31.42392,15.60208 25.49955,36.69306 42.99002,55.51817 32.52708,35.00911 C 584,557.05497 558.08068,514.65441 548.85128,501.6 523.2361,465.36893 520.47411,456.83999 528.55824,438.93545 535.65322,423.22164 535.70587,426.66732 528,402.4 c -6.07708,-19.13792 -8.40524,-36 -4.97055,-36 4.66563,0 29.20727,54.78358 33.15206,74.00435 5.08364,24.76983 7.38567,29.72411 32.86656,70.7334 29.82411,47.99933 30.02868,48.3036 53.82976,80.06225 37.93451,50.6174 38.3258,50.53674 15.52392,-3.2 -6.72132,-15.84 -15.07125,-36.24273 -18.5554,-45.33941 -4.45539,-11.63246 -9.46067,-20.88893 -16.87086,-31.2 -34.31377,-47.74655 -53.10112,-81.449 -51.50762,-92.39903 0.4467,-3.0696 2.57977,-1.10802 13.287,12.21879 13.6034,16.93154 28.23407,33.78722 50.62125,58.31965 8.58883,9.41185 18.17787,22.34501 25.18133,33.96318 27.79737,46.11355 73.84122,111.75097 88.98796,126.85604 18.79067,18.73895 119.52282,97.04588 121.84733,94.72138 2.38067,-2.38068 -85.94498,-91.13126 -106.84121,-107.35521 -12.01665,-9.3298 -23.68104,-19.14117 -25.92085,-21.80303 -10.69222,-12.70699 -43.96244,-72.57043 -41.26045,-74.24035 3.31549,-2.04909 72.00169,51.62457 82.35981,64.35866 46.44312,57.09636 53.72186,64.73195 82.28969,86.32412 27.0458,20.44179 83.49418,60.62954 131.98027,93.96177 l 30,20.6238 z M 33.077092,760.65486 c 3.091885,-8.05732 57.637197,-55.26242 72.138618,-62.43086 16.78257,-8.29606 17.68742,-9.24094 40.43563,-42.224 22.67323,-32.87434 23.96687,-33.92376 56.50556,-45.83801 21.2109,-7.7665 30.12779,-12.97638 45.89424,-26.81465 23.17538,-20.34112 39.52456,-25.4088 24.34886,-7.54729 -17.37423,20.44912 -30.44226,32.73525 -46.29894,43.52874 -15.42589,10.50025 -17.88961,12.92803 -30.49211,30.04722 -7.54065,10.24319 -16.50901,22.41487 -19.92969,27.04816 -3.42068,4.63329 -8.92734,10.1336 -12.23702,12.22291 -11.71464,7.39513 -33.98204,18.89597 -51.23203,26.46074 -9.61064,4.21461 -24.209557,12.19714 -32.442047,17.73894 -8.23249,5.5418 -21.748791,14.63838 -30.036226,20.21462 -15.827139,10.64937 -18.251692,11.7548 -16.654845,7.59348 z M 972.09879,751.97769 C 944.1956,732.93715 935.12512,724.49671 919.68002,703.2 c -3.19102,-4.4 -14.02559,-15.68353 -24.07681,-25.0745 -14.5322,-13.57762 -19.47592,-19.35999 -24.13907,-28.23398 -8.37237,-15.93263 -7.39621,-16.55365 6.00719,-3.82173 6.52923,6.20213 18.94923,16.51165 27.6,22.91005 8.65077,6.39839 19.33146,14.32629 23.73486,17.61756 4.4078,3.29454 14.11595,14.03032 21.6,23.88641 7.4766,9.84626 19.17381,24.95221 25.99381,33.56877 17.06752,21.56354 16.69399,22.25178 -4.30121,7.92511 z"
         id="path3"
         sodipodi:nodetypes="sssssssssssssscsssssccssssssssscsssssssssssssssssssssssssscccsssssssssssssssssssssssssssssssccssssssssssssssssssssssss"
         inkscape:label="lightblue" />
    </g>
  </g>
</svg>
